<svg width="65" height="64" viewBox="0 0 65 64" fill="none" xmlns="http://www.w3.org/2000/svg">
<path fill-rule="evenodd" clip-rule="evenodd" d="M32.0206 4.94378e-06C16.7521 -0.0084276 3.6045 10.7715 0.620315 25.7455C-2.36387 40.7196 5.64667 55.7162 19.7519 61.5618V31.3905L24.2908 25.5482V63.0543C26.8194 63.6827 29.4151 64.0003 32.0206 64C32.8079 64.0001 33.585 63.9626 34.3571 63.9056V19.706L38.896 25.5482V63.2563C41.5822 62.6674 44.1806 61.732 46.6258 60.4738V12.1183L51.1648 17.9606V57.6507C62.2138 49.4033 66.7379 35.006 62.3922 21.9211C58.0465 8.83619 45.8084 0.00583332 32.0207 0.00694939L32.0206 4.94378e-06Z" fill="url(#paint0_linear_61_272)"/>
<defs>
<linearGradient id="paint0_linear_61_272" x1="32.0127" y1="0" x2="32.0127" y2="64" gradientUnits="userSpaceOnUse">
<stop stop-color="#4CAF50"/>
<stop offset="1" stop-color="#204921"/>
</linearGradient>
</defs>
</svg>
